<?xml version="1.0" standalone="no"?>
<!DOCTYPE svg PUBLIC "-//W3C//DTD SVG 1.1//EN"
  "http://www.w3.org/Graphics/SVG/1.1/DTD/svg11.dtd">
<svg baseProfile="full" height="100%" version="1.1" width="100%" xmlns="http://www.w3.org/2000/svg" xmlns:ev="http://www.w3.org/2001/xml-events" xmlns:xlink="http://www.w3.org/1999/xlink"><defs><marker fill="black" id="id76" markerHeight="10" markerUnits="strokeWidth" markerWidth="8" orient="auto" overflow="visible" refX="0" refY="5" stroke="none" viewBox="0 0 10 5"><path d="M 0 0 L 10 5 L 0 10 z" /></marker><marker fill="black" id="id77" markerHeight="10" markerUnits="strokeWidth" markerWidth="8" orient="auto" overflow="visible" refX="0" refY="5" stroke="none" viewBox="0 0 10 5"><path d="M 0 0 L 10 5 L 0 10 z" /></marker><marker fill="black" id="id78" markerHeight="10" markerUnits="strokeWidth" markerWidth="8" orient="auto" overflow="visible" refX="0" refY="5" stroke="none" viewBox="0 0 10 5"><path d="M 0 0 L 10 5 L 0 10 z" /></marker><marker fill="black" id="id79" markerHeight="10" markerUnits="strokeWidth" markerWidth="8" orient="auto" overflow="visible" refX="0" refY="5" stroke="none" viewBox="0 0 10 5"><path d="M 0 0 L 10 5 L 0 10 z" /></marker><marker fill="black" id="id80" markerHeight="10" markerUnits="strokeWidth" markerWidth="8" orient="auto" overflow="visible" refX="0" refY="5" stroke="none" viewBox="0 0 10 5"><path d="M 0 0 L 10 5 L 0 10 z" /></marker><marker fill="black" id="id81" markerHeight="10" markerUnits="strokeWidth" markerWidth="8" orient="auto" overflow="visible" refX="0" refY="5" stroke="none" viewBox="0 0 10 5"><path d="M 0 0 L 10 5 L 0 10 z" /></marker><marker fill="black" id="id82" markerHeight="10" markerUnits="strokeWidth" markerWidth="8" orient="auto" overflow="visible" refX="0" refY="5" stroke="none" viewBox="0 0 10 5"><path d="M 0 0 L 10 5 L 0 10 z" /></marker><marker fill="black" id="id83" markerHeight="10" markerUnits="strokeWidth" markerWidth="8" orient="auto" overflow="visible" refX="0" refY="5" stroke="none" viewBox="0 0 10 5"><path d="M 0 0 L 10 5 L 0 10 z" /></marker><marker fill="black" id="id84" markerHeight="10" markerUnits="strokeWidth" markerWidth="8" orient="auto" overflow="visible" refX="0" refY="5" stroke="none" viewBox="0 0 10 5"><path d="M 0 0 L 10 5 L 0 10 z" /></marker><marker fill="black" id="id85" markerHeight="10" markerUnits="strokeWidth" markerWidth="8" orient="auto" overflow="visible" refX="0" refY="5" stroke="none" viewBox="0 0 10 5"><path d="M 0 0 L 10 5 L 0 10 z" /></marker><marker fill="black" id="id86" markerHeight="10" markerUnits="strokeWidth" markerWidth="8" orient="auto" overflow="visible" refX="0" refY="5" stroke="none" viewBox="0 0 10 5"><path d="M 0 0 L 10 5 L 0 10 z" /></marker><marker fill="black" id="id87" markerHeight="10" markerUnits="strokeWidth" markerWidth="8" orient="auto" overflow="visible" refX="0" refY="5" stroke="none" viewBox="0 0 10 5"><path d="M 0 0 L 10 5 L 0 10 z" /></marker></defs><rect fill="#EBD9B2" height="30" stroke="#000000" width="107.25" x="221.49306488" y="558.003498077" /><rect fill="#ffffff" height="20" stroke="rgb(0,0,0)" width="107.25" x="221.49306488" y="588.003498077" /><rect fill="#EBD9B2" height="30" stroke="#000000" width="107.25" x="222.500007629" y="632.013904572" /><rect fill="#ffffff" height="20" stroke="rgb(0,0,0)" width="107.25" x="222.500007629" y="662.013904572" /><rect fill="#EBD9B2" height="30" stroke="#000000" width="115.5" x="503.489601135" y="199.982654572" /><rect fill="#ffffff" height="80" stroke="rgb(0,0,0)" width="115.5" x="503.489601135" y="229.982654572" /><rect fill="#EBD9B2" height="30" stroke="#000000" width="115.5" x="552.482673645" y="399.982654572" /><rect fill="#ffffff" height="80" stroke="rgb(0,0,0)" width="115.5" x="552.482673645" y="429.982654572" /><rect fill="#EBD9B2" height="30" stroke="#000000" width="115.5" x="499.479194641" y="787.013904572" /><rect fill="#ffffff" height="110" stroke="rgb(0,0,0)" width="115.5" x="499.479194641" y="817.013904572" /><rect fill="#EBD9B2" height="30" stroke="#000000" width="115.5" x="699.479194641" y="622.986133575" /><rect fill="#ffffff" height="95" stroke="rgb(0,0,0)" width="115.5" x="699.479194641" y="652.986133575" /><rect fill="#EBD9B2" height="30" stroke="#000000" width="99.0" x="1081.47577667" y="648.975696564" /><rect fill="#ffffff" height="50" stroke="rgb(0,0,0)" width="99.0" x="1081.47577667" y="678.975696564" /><rect fill="#EBD9B2" height="30" stroke="#000000" width="77.0" x="1195.46881866" y="428.506977081" /><rect fill="#ffffff" height="80" stroke="rgb(0,0,0)" width="77.0" x="1195.46881866" y="458.506977081" /><line marker-end="url(#id76)" stroke="#000000" x1="333.74306488" x2="498.489601135" y1="598.003498077" y2="259.982654572" /><line marker-end="url(#id77)" stroke="#000000" x1="334.750007629" x2="498.489601135" y1="672.013904572" y2="244.982654572" /><line marker-end="url(#id78)" stroke="#000000" x1="333.74306488" x2="547.482673645" y1="598.003498077" y2="459.982654572" /><line marker-end="url(#id79)" stroke="#000000" x1="334.750007629" x2="547.482673645" y1="672.013904572" y2="444.982654572" /><line marker-end="url(#id80)" stroke="#000000" x1="333.74306488" x2="494.479194641" y1="598.003498077" y2="847.013904572" /><line marker-end="url(#id81)" stroke="#000000" x1="334.750007629" x2="494.479194641" y1="672.013904572" y2="832.013904572" /><line marker-end="url(#id82)" stroke="#000000" x1="333.74306488" x2="694.479194641" y1="598.003498077" y2="682.986133575" /><line marker-end="url(#id83)" stroke="#000000" x1="334.750007629" x2="694.479194641" y1="672.013904572" y2="667.986133575" /><line marker-end="url(#id84)" stroke="#000000" x1="819.979194641" x2="1076.47577667" y1="737.986133575" y2="693.975696564" /><line marker-end="url(#id85)" stroke="#000000" x1="333.74306488" x2="1190.46881866" y1="598.003498077" y2="488.506977081" /><line marker-end="url(#id86)" stroke="#000000" x1="334.750007629" x2="1190.46881866" y1="672.013904572" y2="473.506977081" /><line marker-end="url(#id87)" stroke="#000000" x1="1185.47577667" x2="1190.46881866" y1="718.975696564" y2="503.506977081" /><g style="font-family: Helvetica, Arial, FreeSans, Sans, sans, sans-serif;"><text style="font-size:14px" x="226.49306488" y="578.003498077">Input dataset</text><text style="font-size:10px" x="226.49306488" y="603.003498077">output</text><text style="font-size:14px" x="227.500007629" y="652.013904572">Input dataset</text><text style="font-size:10px" x="227.500007629" y="677.013904572">output</text><text style="font-size:14px" x="508.489601135" y="219.982654572">RADIA</text><text style="font-size:10px" x="508.489601135" y="244.982654572">Normal Alignment File</text><text style="font-size:10px" x="508.489601135" y="259.982654572">Tumour Alignment File</text><text style="font-size:10px" x="508.489601135" y="274.982654572">Chromosomes</text><text style="font-size:10px" x="508.489601135" y="304.982654572">output</text><text style="font-size:14px" x="557.482673645" y="419.982654572">SomaticSniper</text><text style="font-size:10px" x="557.482673645" y="444.982654572">Normal Alignment File</text><text style="font-size:10px" x="557.482673645" y="459.982654572">Tumour Alignment File</text><text style="font-size:10px" x="557.482673645" y="474.982654572">Specify Interval</text><text style="font-size:10px" x="557.482673645" y="504.982654572">variants</text><text style="font-size:14px" x="504.479194641" y="807.013904572">Strelka</text><text style="font-size:10px" x="504.479194641" y="832.013904572">Normal Alignment File</text><text style="font-size:10px" x="504.479194641" y="847.013904572">Tumour Alignment File</text><text style="font-size:10px" x="504.479194641" y="862.013904572">Inteval file</text><text style="font-size:10px" x="504.479194641" y="892.013904572">snvs</text><text style="font-size:10px" x="504.479194641" y="907.013904572">indels</text><text style="font-size:10px" x="504.479194641" y="922.013904572">config</text><text style="font-size:14px" x="704.479194641" y="642.986133575">MutationSeq</text><text style="font-size:10px" x="704.479194641" y="667.986133575">Normal Alignment File</text><text style="font-size:10px" x="704.479194641" y="682.986133575">Tumour Alignment File</text><text style="font-size:10px" x="704.479194641" y="697.986133575">Specify Interval</text><text style="font-size:10px" x="704.479194641" y="712.986133575">Positions File</text><text style="font-size:10px" x="704.479194641" y="742.986133575">output</text><text style="font-size:14px" x="1086.47577667" y="668.975696564">ensemble_vcf</text><text style="font-size:10px" x="1086.47577667" y="693.975696564">Input VCF Files</text><text style="font-size:10px" x="1086.47577667" y="723.975696564">output_vcf</text><text style="font-size:14px" x="1200.46881866" y="448.506977081">vcf2maf</text><text style="font-size:10px" x="1200.46881866" y="473.506977081">Normal Bam</text><text style="font-size:10px" x="1200.46881866" y="488.506977081">Tumour Bam</text><text style="font-size:10px" x="1200.46881866" y="503.506977081">Input VCF File</text><text style="font-size:10px" x="1200.46881866" y="533.506977081">output_maf</text><line stroke="rgb(0,0,0)" x1="503.489601135" x2="618.989601135" y1="284.982654572" y2="284.982654572" /><circle cx="328.74306488" cy="598.003498077" fill="#ffffff" r="5" stroke="#000000" /><circle cx="329.750007629" cy="672.013904572" fill="#ffffff" r="5" stroke="#000000" /><line stroke="rgb(0,0,0)" x1="552.482673645" x2="667.982673645" y1="484.982654572" y2="484.982654572" /><circle cx="328.74306488" cy="598.003498077" fill="#ffffff" r="5" stroke="#000000" /><circle cx="329.750007629" cy="672.013904572" fill="#ffffff" r="5" stroke="#000000" /><line stroke="rgb(0,0,0)" x1="499.479194641" x2="614.979194641" y1="872.013904572" y2="872.013904572" /><circle cx="328.74306488" cy="598.003498077" fill="#ffffff" r="5" stroke="#000000" /><circle cx="329.750007629" cy="672.013904572" fill="#ffffff" r="5" stroke="#000000" /><line stroke="rgb(0,0,0)" x1="699.479194641" x2="814.979194641" y1="722.986133575" y2="722.986133575" /><circle cx="328.74306488" cy="598.003498077" fill="#ffffff" r="5" stroke="#000000" /><circle cx="329.750007629" cy="672.013904572" fill="#ffffff" r="5" stroke="#000000" /><line stroke="rgb(0,0,0)" x1="1081.47577667" x2="1180.47577667" y1="703.975696564" y2="703.975696564" /><circle cx="814.979194641" cy="737.986133575" fill="#ffffff" r="5" stroke="#000000" /><line stroke="rgb(0,0,0)" x1="1195.46881866" x2="1272.46881866" y1="513.506977081" y2="513.506977081" /><circle cx="328.74306488" cy="598.003498077" fill="#ffffff" r="5" stroke="#000000" /><circle cx="329.750007629" cy="672.013904572" fill="#ffffff" r="5" stroke="#000000" /><circle cx="1180.47577667" cy="718.975696564" fill="#ffffff" r="5" stroke="#000000" /></g></svg>