<?xml version="1.0" standalone="no"?>
<!DOCTYPE svg PUBLIC "-//W3C//DTD SVG 1.1//EN"
  "http://www.w3.org/Graphics/SVG/1.1/DTD/svg11.dtd">
<svg baseProfile="full" height="100%" version="1.1" width="100%" xmlns="http://www.w3.org/2000/svg" xmlns:ev="http://www.w3.org/2001/xml-events" xmlns:xlink="http://www.w3.org/1999/xlink"><defs><marker fill="black" id="id108" markerHeight="10" markerUnits="strokeWidth" markerWidth="8" orient="auto" overflow="visible" refX="0" refY="5" stroke="none" viewBox="0 0 10 5"><path d="M 0 0 L 10 5 L 0 10 z" /></marker><marker fill="black" id="id109" markerHeight="10" markerUnits="strokeWidth" markerWidth="8" orient="auto" overflow="visible" refX="0" refY="5" stroke="none" viewBox="0 0 10 5"><path d="M 0 0 L 10 5 L 0 10 z" /></marker><marker fill="black" id="id110" markerHeight="10" markerUnits="strokeWidth" markerWidth="8" orient="auto" overflow="visible" refX="0" refY="5" stroke="none" viewBox="0 0 10 5"><path d="M 0 0 L 10 5 L 0 10 z" /></marker><marker fill="black" id="id111" markerHeight="10" markerUnits="strokeWidth" markerWidth="8" orient="auto" overflow="visible" refX="0" refY="5" stroke="none" viewBox="0 0 10 5"><path d="M 0 0 L 10 5 L 0 10 z" /></marker><marker fill="black" id="id112" markerHeight="10" markerUnits="strokeWidth" markerWidth="8" orient="auto" overflow="visible" refX="0" refY="5" stroke="none" viewBox="0 0 10 5"><path d="M 0 0 L 10 5 L 0 10 z" /></marker><marker fill="black" id="id113" markerHeight="10" markerUnits="strokeWidth" markerWidth="8" orient="auto" overflow="visible" refX="0" refY="5" stroke="none" viewBox="0 0 10 5"><path d="M 0 0 L 10 5 L 0 10 z" /></marker><marker fill="black" id="id114" markerHeight="10" markerUnits="strokeWidth" markerWidth="8" orient="auto" overflow="visible" refX="0" refY="5" stroke="none" viewBox="0 0 10 5"><path d="M 0 0 L 10 5 L 0 10 z" /></marker><marker fill="black" id="id115" markerHeight="10" markerUnits="strokeWidth" markerWidth="8" orient="auto" overflow="visible" refX="0" refY="5" stroke="none" viewBox="0 0 10 5"><path d="M 0 0 L 10 5 L 0 10 z" /></marker><marker fill="black" id="id116" markerHeight="10" markerUnits="strokeWidth" markerWidth="8" orient="auto" overflow="visible" refX="0" refY="5" stroke="none" viewBox="0 0 10 5"><path d="M 0 0 L 10 5 L 0 10 z" /></marker><marker fill="black" id="id117" markerHeight="10" markerUnits="strokeWidth" markerWidth="8" orient="auto" overflow="visible" refX="0" refY="5" stroke="none" viewBox="0 0 10 5"><path d="M 0 0 L 10 5 L 0 10 z" /></marker></defs><rect fill="#EBD9B2" height="30" stroke="#000000" width="107.25" x="395.000022888" y="171.49307251" /><rect fill="#ffffff" height="20" stroke="rgb(0,0,0)" width="107.25" x="395.000022888" y="201.49307251" /><rect fill="#EBD9B2" height="30" stroke="#000000" width="107.25" x="396.006980896" y="236.475692749" /><rect fill="#ffffff" height="20" stroke="rgb(0,0,0)" width="107.25" x="396.006980896" y="266.475692749" /><rect fill="#EBD9B2" height="30" stroke="#000000" width="107.25" x="396.979179382" y="308.489608765" /><rect fill="#ffffff" height="20" stroke="rgb(0,0,0)" width="107.25" x="396.979179382" y="338.489608765" /><rect fill="#EBD9B2" height="30" stroke="#000000" width="107.25" x="195.000022888" y="490.486129761" /><rect fill="#ffffff" height="20" stroke="rgb(0,0,0)" width="107.25" x="195.000022888" y="520.486129761" /><rect fill="#EBD9B2" height="30" stroke="#000000" width="107.25" x="191.006950378" y="576.493087769" /><rect fill="#ffffff" height="20" stroke="rgb(0,0,0)" width="107.25" x="191.006950378" y="606.493087769" /><rect fill="#EBD9B2" height="30" stroke="#000000" width="107.25" x="401.006980896" y="682.500045776" /><rect fill="#ffffff" height="20" stroke="rgb(0,0,0)" width="107.25" x="401.006980896" y="712.500045776" /><rect fill="#EBD9B2" height="30" stroke="#000000" width="107.25" x="403.020866394" y="772.500045776" /><rect fill="#ffffff" height="20" stroke="rgb(0,0,0)" width="107.25" x="403.020866394" y="802.500045776" /><rect fill="#EBD9B2" height="30" stroke="#000000" width="88.0" x="414.010429382" y="467.465316772" /><rect fill="#ffffff" height="80" stroke="rgb(0,0,0)" width="88.0" x="414.010429382" y="497.465316772" /><rect fill="#EBD9B2" height="30" stroke="#000000" width="236.5" x="650.989616394" y="504.461837769" /><rect fill="#ffffff" height="80" stroke="rgb(0,0,0)" width="236.5" x="650.989616394" y="534.461837769" /><rect fill="#EBD9B2" height="30" stroke="#000000" width="627.0" x="1135.00005341" y="438.489608765" /><rect fill="#ffffff" height="155" stroke="rgb(0,0,0)" width="627.0" x="1135.00005341" y="468.489608765" /><line marker-end="url(#id108)" stroke="#000000" x1="303.256950378" x2="409.010429382" y1="616.493087769" y2="527.465316772" /><line marker-end="url(#id109)" stroke="#000000" x1="307.250022888" x2="409.010429382" y1="530.486129761" y2="512.465316772" /><line marker-end="url(#id110)" stroke="#000000" x1="507.010429382" x2="645.989616394" y1="552.465316772" y2="549.461837769" /><line marker-end="url(#id111)" stroke="#000000" x1="507.010429382" x2="645.989616394" y1="567.465316772" y2="564.461837769" /><line marker-end="url(#id112)" stroke="#000000" x1="507.250022888" x2="1130.00005341" y1="211.49307251" y2="483.489608765" /><line marker-end="url(#id113)" stroke="#000000" x1="892.489616394" x2="1130.00005341" y1="604.461837769" y2="528.489608765" /><line marker-end="url(#id114)" stroke="#000000" x1="509.229179382" x2="1130.00005341" y1="348.489608765" y2="513.489608765" /><line marker-end="url(#id115)" stroke="#000000" x1="513.256980896" x2="1130.00005341" y1="722.500045776" y2="543.489608765" /><line marker-end="url(#id116)" stroke="#000000" x1="515.270866394" x2="1130.00005341" y1="812.500045776" y2="558.489608765" /><line marker-end="url(#id117)" stroke="#000000" x1="508.256980896" x2="1130.00005341" y1="276.475692749" y2="498.489608765" /><g style="font-family: Helvetica, Arial, FreeSans, Sans, sans, sans-serif;"><text style="font-size:14px" x="400.000022888" y="191.49307251">Input dataset</text><text style="font-size:10px" x="400.000022888" y="216.49307251">output</text><text style="font-size:14px" x="401.006980896" y="256.475692749">Input dataset</text><text style="font-size:10px" x="401.006980896" y="281.475692749">output</text><text style="font-size:14px" x="401.979179382" y="328.489608765">Input dataset</text><text style="font-size:10px" x="401.979179382" y="353.489608765">output</text><text style="font-size:14px" x="200.000022888" y="510.486129761">Input dataset</text><text style="font-size:10px" x="200.000022888" y="535.486129761">output</text><text style="font-size:14px" x="196.006950378" y="596.493087769">Input dataset</text><text style="font-size:10px" x="196.006950378" y="621.493087769">output</text><text style="font-size:14px" x="406.006980896" y="702.500045776">Input dataset</text><text style="font-size:10px" x="406.006980896" y="727.500045776">output</text><text style="font-size:14px" x="408.020866394" y="792.500045776">Input dataset</text><text style="font-size:10px" x="408.020866394" y="817.500045776">output</text><text style="font-size:14px" x="419.010429382" y="487.465316772">IGV2Gistic</text><text style="font-size:10px" x="419.010429382" y="512.465316772">IGV segment file</text><text style="font-size:10px" x="419.010429382" y="527.465316772">BED file</text><text style="font-size:10px" x="419.010429382" y="557.465316772">out_seg</text><text style="font-size:10px" x="419.010429382" y="572.465316772">markers</text><text style="font-size:14px" x="655.989616394" y="524.461837769">GISTIC2.0</text><text style="font-size:10px" x="655.989616394" y="549.461837769">Seg file created using IGV2Gistic tool.</text><text style="font-size:10px" x="655.989616394" y="564.461837769">markers file created using IGV2Gistic tool.</text><text style="font-size:10px" x="655.989616394" y="594.461837769">list_output</text><text style="font-size:10px" x="655.989616394" y="609.461837769">sig_regions</text><text style="font-size:14px" x="1140.00005341" y="458.489608765">Oncocircos</text><text style="font-size:10px" x="1140.00005341" y="483.489608765">Cohort Wide MAF File</text><text style="font-size:10px" x="1140.00005341" y="498.489608765">Cohort Wide SEGS File</text><text style="font-size:10px" x="1140.00005341" y="513.489608765">Biomart File listing all genes (format: ENSG, chrom, start, end, Symbol</text><text style="font-size:10px" x="1140.00005341" y="528.489608765">Regions of recurrent copy number gain/loss in bed format. 4th column must indicate the event type (e.g gain, hetd)</text><text style="font-size:10px" x="1140.00005341" y="543.489608765">Gene File</text><text style="font-size:10px" x="1140.00005341" y="558.489608765">Gene File</text><text style="font-size:10px" x="1140.00005341" y="588.489608765">png</text><text style="font-size:10px" x="1140.00005341" y="603.489608765">svg</text><text style="font-size:10px" x="1140.00005341" y="618.489608765">tmp</text><line stroke="rgb(0,0,0)" x1="414.010429382" x2="502.010429382" y1="537.465316772" y2="537.465316772" /><circle cx="298.256950378" cy="616.493087769" fill="#ffffff" r="5" stroke="#000000" /><circle cx="302.250022888" cy="530.486129761" fill="#ffffff" r="5" stroke="#000000" /><line stroke="rgb(0,0,0)" x1="650.989616394" x2="887.489616394" y1="574.461837769" y2="574.461837769" /><circle cx="502.010429382" cy="552.465316772" fill="#ffffff" r="5" stroke="#000000" /><circle cx="502.010429382" cy="567.465316772" fill="#ffffff" r="5" stroke="#000000" /><line stroke="rgb(0,0,0)" x1="1135.00005341" x2="1762.00005341" y1="568.489608765" y2="568.489608765" /><circle cx="502.250022888" cy="211.49307251" fill="#ffffff" r="5" stroke="#000000" /><circle cx="887.489616394" cy="604.461837769" fill="#ffffff" r="5" stroke="#000000" /><circle cx="504.229179382" cy="348.489608765" fill="#ffffff" r="5" stroke="#000000" /><circle cx="508.256980896" cy="722.500045776" fill="#ffffff" r="5" stroke="#000000" /><circle cx="510.270866394" cy="812.500045776" fill="#ffffff" r="5" stroke="#000000" /><circle cx="503.256980896" cy="276.475692749" fill="#ffffff" r="5" stroke="#000000" /></g></svg>