<?xml version="1.0" standalone="no"?>
<!DOCTYPE svg PUBLIC "-//W3C//DTD SVG 1.1//EN"
  "http://www.w3.org/Graphics/SVG/1.1/DTD/svg11.dtd">
<svg baseProfile="full" height="100%" version="1.1" width="100%" xmlns="http://www.w3.org/2000/svg" xmlns:ev="http://www.w3.org/2001/xml-events" xmlns:xlink="http://www.w3.org/1999/xlink"><defs><marker fill="black" id="id11" markerHeight="10" markerUnits="strokeWidth" markerWidth="8" orient="auto" overflow="visible" refX="0" refY="5" stroke="none" viewBox="0 0 10 5"><path d="M 0 0 L 10 5 L 0 10 z" /></marker><marker fill="black" id="id12" markerHeight="10" markerUnits="strokeWidth" markerWidth="8" orient="auto" overflow="visible" refX="0" refY="5" stroke="none" viewBox="0 0 10 5"><path d="M 0 0 L 10 5 L 0 10 z" /></marker><marker fill="black" id="id13" markerHeight="10" markerUnits="strokeWidth" markerWidth="8" orient="auto" overflow="visible" refX="0" refY="5" stroke="none" viewBox="0 0 10 5"><path d="M 0 0 L 10 5 L 0 10 z" /></marker><marker fill="black" id="id14" markerHeight="10" markerUnits="strokeWidth" markerWidth="8" orient="auto" overflow="visible" refX="0" refY="5" stroke="none" viewBox="0 0 10 5"><path d="M 0 0 L 10 5 L 0 10 z" /></marker><marker fill="black" id="id15" markerHeight="10" markerUnits="strokeWidth" markerWidth="8" orient="auto" overflow="visible" refX="0" refY="5" stroke="none" viewBox="0 0 10 5"><path d="M 0 0 L 10 5 L 0 10 z" /></marker></defs><rect fill="#EBD9B2" height="30" stroke="#000000" width="107.25" x="195.000015259" y="357.552108765" /><rect fill="#ffffff" height="20" stroke="rgb(0,0,0)" width="107.25" x="195.000015259" y="387.552108765" /><rect fill="#EBD9B2" height="30" stroke="#000000" width="107.25" x="349.045150757" y="280.538223267" /><rect fill="#ffffff" height="20" stroke="rgb(0,0,0)" width="107.25" x="349.045150757" y="310.538223267" /><rect fill="#EBD9B2" height="30" stroke="#000000" width="107.25" x="529.079879761" y="243.593765259" /><rect fill="#ffffff" height="20" stroke="rgb(0,0,0)" width="107.25" x="529.079879761" y="273.593765259" /><rect fill="#EBD9B2" height="30" stroke="#000000" width="93.5" x="382.934066772" y="416.579879761" /><rect fill="#ffffff" height="50" stroke="rgb(0,0,0)" width="93.5" x="382.934066772" y="446.579879761" /><rect fill="#EBD9B2" height="30" stroke="#000000" width="49.5" x="566.944442749" y="431.579879761" /><rect fill="#ffffff" height="50" stroke="rgb(0,0,0)" width="49.5" x="566.944442749" y="461.579879761" /><rect fill="#EBD9B2" height="30" stroke="#000000" width="181.5" x="801.076400757" y="360.590286255" /><rect fill="#ffffff" height="95" stroke="rgb(0,0,0)" width="181.5" x="801.076400757" y="390.590286255" /><line marker-end="url(#id11)" stroke="#000000" x1="307.250015259" x2="377.934066772" y1="397.552108765" y2="461.579879761" /><line marker-end="url(#id12)" stroke="#000000" x1="481.434066772" x2="561.944442749" y1="486.579879761" y2="476.579879761" /><line marker-end="url(#id13)" stroke="#000000" x1="461.295150757" x2="796.076400757" y1="320.538223267" y2="420.590286255" /><line marker-end="url(#id14)" stroke="#000000" x1="641.329879761" x2="796.076400757" y1="283.593765259" y2="405.590286255" /><line marker-end="url(#id15)" stroke="#000000" x1="621.444442749" x2="796.076400757" y1="501.579879761" y2="435.590286255" /><g style="font-family: Helvetica, Arial, FreeSans, Sans, sans, sans-serif;"><text style="font-size:14px" x="200.000015259" y="377.552108765">Input dataset</text><text style="font-size:10px" x="200.000015259" y="402.552108765">output</text><text style="font-size:14px" x="354.045150757" y="300.538223267">Input dataset</text><text style="font-size:10px" x="354.045150757" y="325.538223267">output</text><text style="font-size:14px" x="534.079879761" y="263.593765259">Input dataset</text><text style="font-size:10px" x="534.079879761" y="288.593765259">output</text><text style="font-size:14px" x="387.934066772" y="436.579879761">Select</text><text style="font-size:10px" x="387.934066772" y="461.579879761">Select lines from</text><text style="font-size:10px" x="387.934066772" y="491.579879761">out_file1</text><text style="font-size:14px" x="571.944442749" y="451.579879761">Cut</text><text style="font-size:10px" x="571.944442749" y="476.579879761">From</text><text style="font-size:10px" x="571.944442749" y="506.579879761">out_file1</text><text style="font-size:14px" x="806.076400757" y="380.590286255">Take an IGV screenshot</text><text style="font-size:10px" x="806.076400757" y="405.590286255">Track 1 &gt; Select input file</text><text style="font-size:10px" x="806.076400757" y="420.590286255">Track 2 &gt; Select input file</text><text style="font-size:10px" x="806.076400757" y="435.590286255">Region File</text><text style="font-size:10px" x="806.076400757" y="465.590286255">igv_output</text><text style="font-size:10px" x="806.076400757" y="480.590286255">outputfile</text><line stroke="rgb(0,0,0)" x1="382.934066772" x2="476.434066772" y1="471.579879761" y2="471.579879761" /><circle cx="302.250015259" cy="397.552108765" fill="#ffffff" r="5" stroke="#000000" /><line stroke="rgb(0,0,0)" x1="566.944442749" x2="616.444442749" y1="486.579879761" y2="486.579879761" /><circle cx="476.434066772" cy="486.579879761" fill="#ffffff" r="5" stroke="#000000" /><line stroke="rgb(0,0,0)" x1="801.076400757" x2="982.576400757" y1="445.590286255" y2="445.590286255" /><circle cx="456.295150757" cy="320.538223267" fill="#ffffff" r="5" stroke="#000000" /><circle cx="636.329879761" cy="283.593765259" fill="#ffffff" r="5" stroke="#000000" /><circle cx="616.444442749" cy="501.579879761" fill="#ffffff" r="5" stroke="#000000" /></g></svg>