<?xml version="1.0" standalone="no"?>
<!DOCTYPE svg PUBLIC "-//W3C//DTD SVG 1.1//EN"
  "http://www.w3.org/Graphics/SVG/1.1/DTD/svg11.dtd">
<svg baseProfile="full" height="100%" version="1.1" width="100%" xmlns="http://www.w3.org/2000/svg" xmlns:ev="http://www.w3.org/2001/xml-events" xmlns:xlink="http://www.w3.org/1999/xlink"><defs><marker fill="black" id="id1" markerHeight="10" markerUnits="strokeWidth" markerWidth="8" orient="auto" overflow="visible" refX="0" refY="5" stroke="none" viewBox="0 0 10 5"><path d="M 0 0 L 10 5 L 0 10 z" /></marker><marker fill="black" id="id2" markerHeight="10" markerUnits="strokeWidth" markerWidth="8" orient="auto" overflow="visible" refX="0" refY="5" stroke="none" viewBox="0 0 10 5"><path d="M 0 0 L 10 5 L 0 10 z" /></marker></defs><rect fill="#EBD9B2" height="30" stroke="#000000" width="198.0" x="161.562515259" y="226.093765259" /><rect fill="#ffffff" height="20" stroke="rgb(0,0,0)" width="198.0" x="161.562515259" y="256.093765259" /><rect fill="#EBD9B2" height="30" stroke="#000000" width="110.0" x="406.076400757" y="124.097229004" /><rect fill="#ffffff" height="50" stroke="rgb(0,0,0)" width="110.0" x="406.076400757" y="154.097229004" /><rect fill="#EBD9B2" height="30" stroke="#000000" width="165.0" x="611.076400757" y="212.083358765" /><rect fill="#ffffff" height="50" stroke="rgb(0,0,0)" width="165.0" x="611.076400757" y="242.083358765" /><line marker-end="url(#id1)" stroke="#000000" x1="364.562515259" x2="401.076400757" y1="266.093765259" y2="169.097229004" /><line marker-end="url(#id2)" stroke="#000000" x1="521.076400757" x2="606.076400757" y1="194.097229004" y2="257.083358765" /><g style="font-family: Helvetica, Arial, FreeSans, Sans, sans, sans-serif;"><text style="font-size:14px" x="166.562515259" y="246.093765259">Input dataset collection</text><text style="font-size:10px" x="166.562515259" y="271.093765259">output</text><text style="font-size:14px" x="411.076400757" y="144.097229004">cnv2igv</text><text style="font-size:10px" x="411.076400757" y="169.097229004">Sequenza output file</text><text style="font-size:10px" x="411.076400757" y="199.097229004">out_file</text><text style="font-size:14px" x="616.076400757" y="232.083358765">Merge SEG Collection</text><text style="font-size:10px" x="616.076400757" y="257.083358765">seg_collection</text><text style="font-size:10px" x="616.076400757" y="287.083358765">output</text><line stroke="rgb(0,0,0)" x1="406.076400757" x2="516.076400757" y1="179.097229004" y2="179.097229004" /><circle cx="359.562515259" cy="266.093765259" fill="#ffffff" r="5" stroke="#000000" /><line stroke="rgb(0,0,0)" x1="611.076400757" x2="776.076400757" y1="267.083358765" y2="267.083358765" /><circle cx="516.076400757" cy="194.097229004" fill="#ffffff" r="5" stroke="#000000" /></g></svg>