<?xml version="1.0" standalone="no"?>
<!DOCTYPE svg PUBLIC "-//W3C//DTD SVG 1.1//EN"
  "http://www.w3.org/Graphics/SVG/1.1/DTD/svg11.dtd">
<svg baseProfile="full" height="100%" version="1.1" width="100%" xmlns="http://www.w3.org/2000/svg" xmlns:ev="http://www.w3.org/2001/xml-events" xmlns:xlink="http://www.w3.org/1999/xlink"><defs><marker fill="black" id="id48" markerHeight="10" markerUnits="strokeWidth" markerWidth="8" orient="auto" overflow="visible" refX="0" refY="5" stroke="none" viewBox="0 0 10 5"><path d="M 0 0 L 10 5 L 0 10 z" /></marker><marker fill="black" id="id49" markerHeight="10" markerUnits="strokeWidth" markerWidth="8" orient="auto" overflow="visible" refX="0" refY="5" stroke="none" viewBox="0 0 10 5"><path d="M 0 0 L 10 5 L 0 10 z" /></marker><marker fill="black" id="id50" markerHeight="10" markerUnits="strokeWidth" markerWidth="8" orient="auto" overflow="visible" refX="0" refY="5" stroke="none" viewBox="0 0 10 5"><path d="M 0 0 L 10 5 L 0 10 z" /></marker><marker fill="black" id="id51" markerHeight="10" markerUnits="strokeWidth" markerWidth="8" orient="auto" overflow="visible" refX="0" refY="5" stroke="none" viewBox="0 0 10 5"><path d="M 0 0 L 10 5 L 0 10 z" /></marker></defs><rect fill="#EBD9B2" height="30" stroke="#000000" width="107.25" x="189.965286255" y="270.989608765" /><rect fill="#ffffff" height="20" stroke="rgb(0,0,0)" width="107.25" x="189.965286255" y="300.989608765" /><rect fill="#EBD9B2" height="30" stroke="#000000" width="107.25" x="182.048629761" y="341.579879761" /><rect fill="#ffffff" height="20" stroke="rgb(0,0,0)" width="107.25" x="182.048629761" y="371.579879761" /><rect fill="#EBD9B2" height="30" stroke="#000000" width="115.5" x="407.048660278" y="341.597244263" /><rect fill="#ffffff" height="95" stroke="rgb(0,0,0)" width="115.5" x="407.048660278" y="371.597244263" /><rect fill="#EBD9B2" height="30" stroke="#000000" width="107.25" x="607.968765259" y="272.986129761" /><rect fill="#ffffff" height="65" stroke="rgb(0,0,0)" width="107.25" x="607.968765259" y="302.986129761" /><line marker-end="url(#id48)" stroke="#000000" x1="302.215286255" x2="402.048660278" y1="310.989608765" y2="386.597244263" /><line marker-end="url(#id49)" stroke="#000000" x1="294.298629761" x2="402.048660278" y1="381.579879761" y2="401.597244263" /><line marker-end="url(#id50)" stroke="#000000" x1="302.215286255" x2="602.968765259" y1="310.989608765" y2="317.986129761" /><line marker-end="url(#id51)" stroke="#000000" x1="527.548660278" x2="602.968765259" y1="456.597244263" y2="332.986129761" /><g style="font-family: Helvetica, Arial, FreeSans, Sans, sans, sans-serif;"><text style="font-size:14px" x="194.965286255" y="290.989608765">Input dataset</text><text style="font-size:10px" x="194.965286255" y="315.989608765">output</text><text style="font-size:14px" x="187.048629761" y="361.579879761">Input dataset</text><text style="font-size:10px" x="187.048629761" y="386.579879761">output</text><text style="font-size:14px" x="412.048660278" y="361.597244263">OncodriveClust</text><text style="font-size:10px" x="412.048660278" y="386.597244263">MAF File</text><text style="font-size:10px" x="412.048660278" y="401.597244263">Gene File</text><text style="font-size:10px" x="412.048660278" y="431.597244263">out_plot</text><text style="font-size:10px" x="412.048660278" y="446.597244263">out_detail</text><text style="font-size:10px" x="412.048660278" y="461.597244263">sig_genes</text><text style="font-size:14px" x="612.968765259" y="292.986129761">Lollipop Plot</text><text style="font-size:10px" x="612.968765259" y="317.986129761">MAF File</text><text style="font-size:10px" x="612.968765259" y="332.986129761">Gene File</text><text style="font-size:10px" x="612.968765259" y="362.986129761">list_output</text><line stroke="rgb(0,0,0)" x1="407.048660278" x2="522.548660278" y1="411.597244263" y2="411.597244263" /><circle cx="297.215286255" cy="310.989608765" fill="#ffffff" r="5" stroke="#000000" /><circle cx="289.298629761" cy="381.579879761" fill="#ffffff" r="5" stroke="#000000" /><line stroke="rgb(0,0,0)" x1="607.968765259" x2="715.218765259" y1="342.986129761" y2="342.986129761" /><circle cx="297.215286255" cy="310.989608765" fill="#ffffff" r="5" stroke="#000000" /><circle cx="522.548660278" cy="456.597244263" fill="#ffffff" r="5" stroke="#000000" /></g></svg>