<?xml version="1.0" standalone="no"?>
<!DOCTYPE svg PUBLIC "-//W3C//DTD SVG 1.1//EN"
  "http://www.w3.org/Graphics/SVG/1.1/DTD/svg11.dtd">
<svg baseProfile="full" height="100%" version="1.1" width="100%" xmlns="http://www.w3.org/2000/svg" xmlns:ev="http://www.w3.org/2001/xml-events" xmlns:xlink="http://www.w3.org/1999/xlink"><defs><marker fill="black" id="id39" markerHeight="10" markerUnits="strokeWidth" markerWidth="8" orient="auto" overflow="visible" refX="0" refY="5" stroke="none" viewBox="0 0 10 5"><path d="M 0 0 L 10 5 L 0 10 z" /></marker><marker fill="black" id="id40" markerHeight="10" markerUnits="strokeWidth" markerWidth="8" orient="auto" overflow="visible" refX="0" refY="5" stroke="none" viewBox="0 0 10 5"><path d="M 0 0 L 10 5 L 0 10 z" /></marker><marker fill="black" id="id41" markerHeight="10" markerUnits="strokeWidth" markerWidth="8" orient="auto" overflow="visible" refX="0" refY="5" stroke="none" viewBox="0 0 10 5"><path d="M 0 0 L 10 5 L 0 10 z" /></marker><marker fill="black" id="id42" markerHeight="10" markerUnits="strokeWidth" markerWidth="8" orient="auto" overflow="visible" refX="0" refY="5" stroke="none" viewBox="0 0 10 5"><path d="M 0 0 L 10 5 L 0 10 z" /></marker><marker fill="black" id="id43" markerHeight="10" markerUnits="strokeWidth" markerWidth="8" orient="auto" overflow="visible" refX="0" refY="5" stroke="none" viewBox="0 0 10 5"><path d="M 0 0 L 10 5 L 0 10 z" /></marker><marker fill="black" id="id44" markerHeight="10" markerUnits="strokeWidth" markerWidth="8" orient="auto" overflow="visible" refX="0" refY="5" stroke="none" viewBox="0 0 10 5"><path d="M 0 0 L 10 5 L 0 10 z" /></marker><marker fill="black" id="id45" markerHeight="10" markerUnits="strokeWidth" markerWidth="8" orient="auto" overflow="visible" refX="0" refY="5" stroke="none" viewBox="0 0 10 5"><path d="M 0 0 L 10 5 L 0 10 z" /></marker><marker fill="black" id="id46" markerHeight="10" markerUnits="strokeWidth" markerWidth="8" orient="auto" overflow="visible" refX="0" refY="5" stroke="none" viewBox="0 0 10 5"><path d="M 0 0 L 10 5 L 0 10 z" /></marker><marker fill="black" id="id47" markerHeight="10" markerUnits="strokeWidth" markerWidth="8" orient="auto" overflow="visible" refX="0" refY="5" stroke="none" viewBox="0 0 10 5"><path d="M 0 0 L 10 5 L 0 10 z" /></marker></defs><rect fill="#EBD9B2" height="30" stroke="#000000" width="107.25" x="109.965286255" y="245.972244263" /><rect fill="#ffffff" height="20" stroke="rgb(0,0,0)" width="107.25" x="109.965286255" y="275.972244263" /><rect fill="#EBD9B2" height="30" stroke="#000000" width="203.5" x="326.388900757" y="382.465286255" /><rect fill="#ffffff" height="50" stroke="rgb(0,0,0)" width="203.5" x="326.388900757" y="412.465286255" /><rect fill="#EBD9B2" height="30" stroke="#000000" width="90.75" x="626.961837769" y="427.986129761" /><rect fill="#ffffff" height="65" stroke="rgb(0,0,0)" width="90.75" x="626.961837769" y="457.986129761" /><rect fill="#EBD9B2" height="30" stroke="#000000" width="90.75" x="648.94102478" y="584.982650757" /><rect fill="#ffffff" height="65" stroke="rgb(0,0,0)" width="90.75" x="648.94102478" y="614.982650757" /><rect fill="#EBD9B2" height="30" stroke="#000000" width="49.5" x="829.965316772" y="472.986129761" /><rect fill="#ffffff" height="50" stroke="rgb(0,0,0)" width="49.5" x="829.965316772" y="502.986129761" /><rect fill="#EBD9B2" height="30" stroke="#000000" width="107.25" x="985.954940796" y="305.989608765" /><rect fill="#ffffff" height="65" stroke="rgb(0,0,0)" width="107.25" x="985.954940796" y="335.989608765" /><rect fill="#EBD9B2" height="30" stroke="#000000" width="115.5" x="1194.94798279" y="442.968765259" /><rect fill="#ffffff" height="95" stroke="rgb(0,0,0)" width="115.5" x="1194.94798279" y="472.968765259" /><line marker-end="url(#id39)" stroke="#000000" x1="222.215286255" x2="321.388900757" y1="285.972244263" y2="427.465286255" /><line marker-end="url(#id40)" stroke="#000000" x1="534.888900757" x2="621.961837769" y1="452.465286255" y2="472.986129761" /><line marker-end="url(#id41)" stroke="#000000" x1="534.888900757" x2="643.94102478" y1="452.465286255" y2="629.982650757" /><line marker-end="url(#id42)" stroke="#000000" x1="722.711837769" x2="824.965316772" y1="497.986129761" y2="517.986129761" /><line marker-end="url(#id43)" stroke="#000000" x1="222.215286255" x2="980.954940796" y1="285.972244263" y2="350.989608765" /><line marker-end="url(#id44)" stroke="#000000" x1="884.465316772" x2="980.954940796" y1="542.986129761" y2="365.989608765" /><line marker-end="url(#id45)" stroke="#000000" x1="222.215286255" x2="1189.94798279" y1="285.972244263" y2="487.968765259" /><line marker-end="url(#id46)" stroke="#000000" x1="884.465316772" x2="1189.94798279" y1="542.986129761" y2="502.968765259" /><line marker-end="url(#id47)" stroke="#000000" x1="744.69102478" x2="1189.94798279" y1="654.982650757" y2="532.968765259" /><g style="font-family: Helvetica, Arial, FreeSans, Sans, sans, sans-serif;"><text style="font-size:14px" x="114.965286255" y="265.972244263">Input dataset</text><text style="font-size:10px" x="114.965286255" y="290.972244263">output</text><text style="font-size:14px" x="331.388900757" y="402.465286255">maf2tdm</text><text style="font-size:10px" x="331.388900757" y="427.465286255">Maf file from VCF2MAF suite of tools.</text><text style="font-size:10px" x="331.388900757" y="457.465286255">output</text><text style="font-size:14px" x="631.961837769" y="447.986129761">OncodriveFM</text><text style="font-size:10px" x="631.961837769" y="472.986129761">Input MAF File</text><text style="font-size:10px" x="631.961837769" y="502.986129761">out_file1</text><text style="font-size:10px" x="631.961837769" y="517.986129761">out_file2</text><text style="font-size:14px" x="653.94102478" y="604.982650757">OncodriveFM</text><text style="font-size:10px" x="653.94102478" y="629.982650757">Input MAF File</text><text style="font-size:10px" x="653.94102478" y="659.982650757">out_file1</text><text style="font-size:10px" x="653.94102478" y="674.982650757">out_file2</text><text style="font-size:14px" x="834.965316772" y="492.986129761">Cut</text><text style="font-size:10px" x="834.965316772" y="517.986129761">From</text><text style="font-size:10px" x="834.965316772" y="547.986129761">out_file1</text><text style="font-size:14px" x="990.954940796" y="325.989608765">Lollipop Plot</text><text style="font-size:10px" x="990.954940796" y="350.989608765">MAF File</text><text style="font-size:10px" x="990.954940796" y="365.989608765">Gene File</text><text style="font-size:10px" x="990.954940796" y="395.989608765">list_output</text><text style="font-size:14px" x="1199.94798279" y="462.968765259">OncoPrintPlus</text><text style="font-size:10px" x="1199.94798279" y="487.968765259">Cohort Wide MAF File</text><text style="font-size:10px" x="1199.94798279" y="502.968765259">List of Genes Include</text><text style="font-size:10px" x="1199.94798279" y="517.968765259">Mutsig Input</text><text style="font-size:10px" x="1199.94798279" y="532.968765259">Oncodrive-FM Input</text><text style="font-size:10px" x="1199.94798279" y="562.968765259">output</text><line stroke="rgb(0,0,0)" x1="326.388900757" x2="529.888900757" y1="437.465286255" y2="437.465286255" /><circle cx="217.215286255" cy="285.972244263" fill="#ffffff" r="5" stroke="#000000" /><line stroke="rgb(0,0,0)" x1="626.961837769" x2="717.711837769" y1="482.986129761" y2="482.986129761" /><circle cx="529.888900757" cy="452.465286255" fill="#ffffff" r="5" stroke="#000000" /><line stroke="rgb(0,0,0)" x1="648.94102478" x2="739.69102478" y1="639.982650757" y2="639.982650757" /><circle cx="529.888900757" cy="452.465286255" fill="#ffffff" r="5" stroke="#000000" /><line stroke="rgb(0,0,0)" x1="829.965316772" x2="879.465316772" y1="527.986129761" y2="527.986129761" /><circle cx="717.711837769" cy="497.986129761" fill="#ffffff" r="5" stroke="#000000" /><line stroke="rgb(0,0,0)" x1="985.954940796" x2="1093.2049408" y1="375.989608765" y2="375.989608765" /><circle cx="217.215286255" cy="285.972244263" fill="#ffffff" r="5" stroke="#000000" /><circle cx="879.465316772" cy="542.986129761" fill="#ffffff" r="5" stroke="#000000" /><line stroke="rgb(0,0,0)" x1="1194.94798279" x2="1310.44798279" y1="542.968765259" y2="542.968765259" /><circle cx="217.215286255" cy="285.972244263" fill="#ffffff" r="5" stroke="#000000" /><circle cx="879.465316772" cy="542.986129761" fill="#ffffff" r="5" stroke="#000000" /><circle cx="739.69102478" cy="654.982650757" fill="#ffffff" r="5" stroke="#000000" /></g></svg>